<svg width="238" height="57" viewBox="0 0 238 57" fill="none" xmlns="http://www.w3.org/2000/svg">
<path d="M153.026 21.982L156.464 16.762C156.842 16.192 157.166 15.673 157.436 15.205C157.706 14.737 157.91 14.305 158.048 13.909C158.192 13.507 158.264 13.126 158.264 12.766C158.264 12.142 158.087 11.647 157.733 11.281C157.385 10.915 156.908 10.732 156.302 10.732C155.702 10.732 155.147 10.861 154.637 11.119C154.133 11.377 153.668 11.722 153.242 12.154L153.026 10.354C153.44 10.018 153.938 9.73 154.52 9.49C155.108 9.25 155.762 9.13 156.482 9.13C157.25 9.13 157.895 9.283 158.417 9.589C158.939 9.895 159.332 10.309 159.596 10.831C159.86 11.353 159.992 11.938 159.992 12.586C159.992 13.144 159.917 13.675 159.767 14.179C159.617 14.677 159.392 15.196 159.092 15.736C158.792 16.276 158.42 16.882 157.976 17.554L156.068 20.434H160.478V21.982H153.026ZM162.519 22V8.5H164.139V17.158L167.379 13.18H169.359L165.849 17.284L169.449 22H167.469L164.139 17.518V22H162.519ZM180.607 22.252C179.383 22.252 178.291 21.985 177.331 21.451C176.377 20.911 175.624 20.152 175.072 19.174C174.526 18.19 174.253 17.032 174.253 15.7C174.253 14.368 174.529 13.213 175.081 12.235C175.639 11.251 176.401 10.492 177.367 9.958C178.339 9.418 179.443 9.148 180.679 9.148C181.321 9.148 181.933 9.217 182.515 9.355C183.097 9.493 183.607 9.67 184.045 9.886L183.865 11.47C183.415 11.254 182.92 11.071 182.38 10.921C181.84 10.771 181.267 10.696 180.661 10.696C179.671 10.696 178.84 10.921 178.168 11.371C177.496 11.815 176.986 12.415 176.638 13.171C176.296 13.927 176.125 14.77 176.125 15.7C176.125 16.63 176.293 17.473 176.629 18.229C176.971 18.985 177.475 19.588 178.141 20.038C178.813 20.482 179.641 20.704 180.625 20.704C181.249 20.704 181.825 20.638 182.353 20.506C182.887 20.368 183.391 20.182 183.865 19.948L184.045 21.532C183.595 21.736 183.088 21.907 182.524 22.045C181.96 22.183 181.321 22.252 180.607 22.252ZM188.009 22.18C187.439 22.18 186.986 22.078 186.65 21.874C186.32 21.664 186.083 21.397 185.939 21.073C185.795 20.749 185.723 20.41 185.723 20.056V8.5H187.343V19.12C187.343 19.624 187.376 20.002 187.442 20.254C187.508 20.506 187.64 20.674 187.838 20.758C188.042 20.842 188.351 20.884 188.765 20.884L188.531 22.18H188.009ZM189.994 22V13.18H191.614V22H189.994ZM189.994 11.2V9.4H191.614V11.2H189.994ZM198.039 22.18C197.001 22.18 196.128 21.967 195.42 21.541C194.712 21.115 194.175 20.551 193.809 19.849C193.449 19.141 193.269 18.364 193.269 17.518C193.269 16.696 193.437 15.943 193.773 15.259C194.115 14.575 194.607 14.029 195.249 13.621C195.897 13.207 196.677 13 197.589 13C198.321 13 198.972 13.147 199.542 13.441C200.118 13.729 200.568 14.152 200.892 14.71C201.222 15.262 201.387 15.934 201.387 16.726C201.387 16.852 201.381 16.99 201.369 17.14C201.363 17.284 201.345 17.434 201.315 17.59H194.925C195.003 18.406 195.198 19.042 195.51 19.498C195.822 19.954 196.215 20.275 196.689 20.461C197.163 20.647 197.679 20.74 198.237 20.74C198.645 20.74 199.071 20.698 199.515 20.614C199.959 20.53 200.379 20.398 200.775 20.218L200.991 21.496C200.649 21.646 200.232 21.799 199.74 21.955C199.248 22.105 198.681 22.18 198.039 22.18ZM195.069 16.474H199.713C199.713 16.06 199.635 15.7 199.479 15.394C199.323 15.088 199.086 14.854 198.768 14.692C198.45 14.524 198.045 14.44 197.553 14.44C196.833 14.44 196.278 14.62 195.888 14.98C195.504 15.334 195.231 15.832 195.069 16.474ZM203.02 22V13.18H204.28L204.604 14.872L203.974 14.602C204.568 13.942 205.147 13.51 205.711 13.306C206.281 13.102 206.836 13 207.376 13C208.666 13 209.587 13.372 210.139 14.116C210.697 14.86 210.976 15.868 210.976 17.14V22H209.356V17.14C209.356 16.204 209.182 15.52 208.834 15.088C208.486 14.656 207.892 14.44 207.052 14.44C206.458 14.44 205.912 14.572 205.414 14.836C204.922 15.094 204.598 15.508 204.442 16.078L204.64 15.088V22H203.02ZM215.976 22.18C215.418 22.18 214.971 22.078 214.635 21.874C214.299 21.67 214.053 21.409 213.897 21.091C213.747 20.767 213.672 20.428 213.672 20.074V14.44H212.16L212.304 13.18H213.672V11.002L215.292 10.84V13.18H217.614V14.44H215.292V19.084C215.292 19.648 215.325 20.056 215.391 20.308C215.457 20.56 215.619 20.719 215.877 20.785C216.141 20.851 216.564 20.884 217.146 20.884H217.56L217.434 22.18H215.976ZM221.5 22.18C220.72 22.18 220.072 22.087 219.556 21.901C219.046 21.715 218.686 21.55 218.476 21.406L218.674 19.84C218.866 20.008 219.205 20.2 219.691 20.416C220.177 20.632 220.756 20.74 221.428 20.74C221.998 20.74 222.433 20.644 222.733 20.452C223.039 20.26 223.192 19.99 223.192 19.642C223.192 19.336 223.093 19.09 222.895 18.904C222.703 18.712 222.469 18.562 222.193 18.454C221.923 18.34 221.668 18.25 221.428 18.184C221.026 18.076 220.609 17.941 220.177 17.779C219.751 17.611 219.391 17.362 219.097 17.032C218.803 16.702 218.656 16.24 218.656 15.646C218.656 15.196 218.764 14.77 218.98 14.368C219.196 13.96 219.547 13.63 220.033 13.378C220.519 13.126 221.164 13 221.968 13C222.556 13 223.033 13.063 223.399 13.189C223.771 13.309 224.092 13.438 224.362 13.576L224.164 15.052C223.906 14.836 223.606 14.653 223.264 14.503C222.922 14.353 222.502 14.278 222.004 14.278C221.5 14.278 221.089 14.374 220.771 14.566C220.453 14.752 220.294 15.052 220.294 15.466C220.294 15.88 220.462 16.174 220.798 16.348C221.14 16.522 221.656 16.714 222.346 16.924C222.562 16.984 222.811 17.071 223.093 17.185C223.381 17.299 223.66 17.452 223.93 17.644C224.2 17.836 224.422 18.088 224.596 18.4C224.776 18.706 224.866 19.09 224.866 19.552C224.866 19.942 224.773 20.341 224.587 20.749C224.401 21.151 224.065 21.49 223.579 21.766C223.093 22.042 222.4 22.18 221.5 22.18Z" fill="black"/>
<path d="M162.297 36.6325L163.617 39.2725C163.797 39.64 164.277 39.9925 164.682 40.06L167.075 40.4575C168.605 40.7125 168.965 41.8225 167.862 42.9175L166.002 44.7775C165.687 45.0925 165.515 45.7 165.612 46.135L166.145 48.4375C166.565 50.26 165.597 50.965 163.985 50.0125L161.742 48.685C161.337 48.445 160.67 48.445 160.257 48.685L158.015 50.0125C156.41 50.965 155.435 50.2525 155.855 48.4375L156.387 46.135C156.485 45.7 156.312 45.0925 155.997 44.7775L154.137 42.9175C153.042 41.8225 153.395 40.7125 154.925 40.4575L157.317 40.06C157.715 39.9925 158.195 39.64 158.375 39.2725L159.695 36.6325C160.415 35.2 161.585 35.2 162.297 36.6325Z" stroke="#FCAC1F" stroke-width="1.5" stroke-linecap="round" stroke-linejoin="round"/>
<path d="M181.38 48V45.828H177.24L181.704 39.6H182.532V44.856H183.612V45.828H182.532V48H181.38ZM178.92 45.18L178.716 44.856H181.38V41.1L181.584 41.436L178.92 45.18ZM184.362 48V46.728H185.658V48H184.362ZM188.73 48L187.95 47.268C188.282 47.096 188.604 46.896 188.916 46.668C189.232 46.436 189.526 46.178 189.798 45.894C190.07 45.606 190.308 45.298 190.512 44.97C190.716 44.638 190.876 44.286 190.992 43.914C191.108 43.538 191.166 43.148 191.166 42.744L191.55 43.392C191.358 43.776 191.064 44.08 190.668 44.304C190.272 44.528 189.806 44.64 189.27 44.64C188.782 44.64 188.35 44.53 187.974 44.31C187.598 44.086 187.304 43.782 187.092 43.398C186.88 43.014 186.774 42.58 186.774 42.096C186.774 41.576 186.89 41.116 187.122 40.716C187.354 40.316 187.676 40.002 188.088 39.774C188.504 39.546 188.986 39.432 189.534 39.432C190.122 39.432 190.624 39.564 191.04 39.828C191.46 40.088 191.78 40.452 192 40.92C192.22 41.388 192.33 41.932 192.33 42.552C192.33 43.192 192.224 43.794 192.012 44.358C191.8 44.918 191.518 45.432 191.166 45.9C190.818 46.364 190.432 46.774 190.008 47.13C189.584 47.486 189.158 47.776 188.73 48ZM189.534 43.656C190.014 43.656 190.4 43.502 190.692 43.194C190.984 42.886 191.13 42.504 191.13 42.048C191.13 41.572 190.984 41.182 190.692 40.878C190.4 40.57 190.014 40.416 189.534 40.416C189.054 40.416 188.67 40.574 188.382 40.89C188.094 41.206 187.95 41.596 187.95 42.06C187.95 42.508 188.094 42.886 188.382 43.194C188.67 43.502 189.054 43.656 189.534 43.656ZM196.733 48V39.6H199.457C200.041 39.6 200.551 39.69 200.987 39.87C201.423 40.05 201.761 40.328 202.001 40.704C202.241 41.08 202.361 41.564 202.361 42.156C202.361 42.732 202.235 43.214 201.983 43.602C201.735 43.99 201.373 44.296 200.897 44.52L202.781 48H201.389L199.685 44.724C199.673 44.724 199.663 44.724 199.655 44.724C199.647 44.724 199.637 44.724 199.625 44.724H197.933V48H196.733ZM197.933 43.704H199.445C200.017 43.704 200.447 43.566 200.735 43.29C201.027 43.014 201.173 42.636 201.173 42.156C201.173 41.668 201.027 41.29 200.735 41.022C200.447 40.754 200.017 40.62 199.445 40.62H197.933V43.704ZM206.333 48.12C205.641 48.12 205.059 47.978 204.587 47.694C204.115 47.41 203.757 47.034 203.513 46.566C203.273 46.094 203.153 45.576 203.153 45.012C203.153 44.464 203.265 43.962 203.489 43.506C203.717 43.05 204.045 42.686 204.473 42.414C204.905 42.138 205.425 42 206.033 42C206.521 42 206.955 42.098 207.335 42.294C207.719 42.486 208.019 42.768 208.235 43.14C208.455 43.508 208.565 43.956 208.565 44.484C208.565 44.568 208.561 44.66 208.553 44.76C208.549 44.856 208.537 44.956 208.517 45.06H204.257C204.309 45.604 204.439 46.028 204.647 46.332C204.855 46.636 205.117 46.85 205.433 46.974C205.749 47.098 206.093 47.16 206.465 47.16C206.737 47.16 207.021 47.132 207.317 47.076C207.613 47.02 207.893 46.932 208.157 46.812L208.301 47.664C208.073 47.764 207.795 47.866 207.467 47.97C207.139 48.07 206.761 48.12 206.333 48.12ZM204.353 44.316H207.449C207.449 44.04 207.397 43.8 207.293 43.596C207.189 43.392 207.031 43.236 206.819 43.128C206.607 43.016 206.337 42.96 206.009 42.96C205.529 42.96 205.159 43.08 204.899 43.32C204.643 43.556 204.461 43.888 204.353 44.316ZM211.227 48L208.983 42.12H210.183L211.827 46.812L213.459 42.12H214.671L212.439 48H211.227ZM215.513 48V42.12H216.593V48H215.513ZM215.513 40.8V39.6H216.593V40.8H215.513ZM220.876 48.12C220.184 48.12 219.602 47.978 219.13 47.694C218.658 47.41 218.3 47.034 218.056 46.566C217.816 46.094 217.696 45.576 217.696 45.012C217.696 44.464 217.808 43.962 218.032 43.506C218.26 43.05 218.588 42.686 219.016 42.414C219.448 42.138 219.968 42 220.576 42C221.064 42 221.498 42.098 221.878 42.294C222.262 42.486 222.562 42.768 222.778 43.14C222.998 43.508 223.108 43.956 223.108 44.484C223.108 44.568 223.104 44.66 223.096 44.76C223.092 44.856 223.08 44.956 223.06 45.06H218.8C218.852 45.604 218.982 46.028 219.19 46.332C219.398 46.636 219.66 46.85 219.976 46.974C220.292 47.098 220.636 47.16 221.008 47.16C221.28 47.16 221.564 47.132 221.86 47.076C222.156 47.02 222.436 46.932 222.7 46.812L222.844 47.664C222.616 47.764 222.338 47.866 222.01 47.97C221.682 48.07 221.304 48.12 220.876 48.12ZM218.896 44.316H221.992C221.992 44.04 221.94 43.8 221.836 43.596C221.732 43.392 221.574 43.236 221.362 43.128C221.15 43.016 220.88 42.96 220.552 42.96C220.072 42.96 219.702 43.08 219.442 43.32C219.186 43.556 219.004 43.888 218.896 44.316ZM225.373 48L223.609 42.12H224.881L226.009 46.812L227.257 42.3H228.373L229.633 46.812L230.761 42.12H232.033L230.257 48H229.045L227.821 43.656L226.585 48H225.373ZM234.56 48.12C234.04 48.12 233.608 48.058 233.264 47.934C232.924 47.81 232.684 47.7 232.544 47.604L232.676 46.56C232.804 46.672 233.03 46.8 233.354 46.944C233.678 47.088 234.064 47.16 234.512 47.16C234.892 47.16 235.182 47.096 235.382 46.968C235.586 46.84 235.688 46.66 235.688 46.428C235.688 46.224 235.622 46.06 235.49 45.936C235.362 45.808 235.206 45.708 235.022 45.636C234.842 45.56 234.672 45.5 234.512 45.456C234.244 45.384 233.966 45.294 233.678 45.186C233.394 45.074 233.154 44.908 232.958 44.688C232.762 44.468 232.664 44.16 232.664 43.764C232.664 43.464 232.736 43.18 232.88 42.912C233.024 42.64 233.258 42.42 233.582 42.252C233.906 42.084 234.336 42 234.872 42C235.264 42 235.582 42.042 235.826 42.126C236.074 42.206 236.288 42.292 236.468 42.384L236.336 43.368C236.164 43.224 235.964 43.102 235.736 43.002C235.508 42.902 235.228 42.852 234.896 42.852C234.56 42.852 234.286 42.916 234.074 43.044C233.862 43.168 233.756 43.368 233.756 43.644C233.756 43.92 233.868 44.116 234.092 44.232C234.32 44.348 234.664 44.476 235.124 44.616C235.268 44.656 235.434 44.714 235.622 44.79C235.814 44.866 236 44.968 236.18 45.096C236.36 45.224 236.508 45.392 236.624 45.6C236.744 45.804 236.804 46.06 236.804 46.368C236.804 46.628 236.742 46.894 236.618 47.166C236.494 47.434 236.27 47.66 235.946 47.844C235.622 48.028 235.16 48.12 234.56 48.12Z" fill="black"/>
<g clip-path="url(#clip0_2_722)">
<rect x="2" y="2" width="50" height="50" rx="25" fill="#FBE36A"/>
<mask id="mask0_2_722" style="mask-type:alpha" maskUnits="userSpaceOnUse" x="2" y="2" width="50" height="50">
<path d="M27 52C13.1812 52 2 40.8022 2 27C2 13.1812 13.1977 2 27 2C40.8188 2 52 13.1977 52 27C52.0166 40.8188 40.8188 52 27 52Z" fill="#F7C0B5"/>
</mask>
<g mask="url(#mask0_2_722)">
<path d="M41.0001 48.0512C40.8834 48.1345 40.7501 48.2178 40.6334 48.3012C40.5001 48.3845 40.3834 48.4678 40.2501 48.5345C40.1334 48.6012 40.0334 48.6678 39.9167 48.7345C39.9001 48.7512 39.8834 48.7512 39.8667 48.7678C39.4834 49.0012 39.0834 49.2178 38.6834 49.4178C38.5667 49.4845 38.4334 49.5512 38.3167 49.6012C38.3167 49.6012 38.3001 49.6178 38.2834 49.6178C38.1501 49.6845 38.0167 49.7512 37.8834 49.8178C37.6167 49.9512 37.3334 50.0678 37.0667 50.1845C36.9334 50.2512 36.7834 50.3012 36.6501 50.3512C36.5167 50.4012 36.3667 50.4678 36.2334 50.5178C36.1001 50.5678 35.9501 50.6345 35.8167 50.6845C35.8167 50.6845 35.8167 50.6845 35.8001 50.6845C35.6667 50.7345 35.5167 50.7845 35.3834 50.8345C35.0834 50.9345 34.7667 51.0345 34.4667 51.1345C34.3667 51.1678 34.2501 51.2012 34.1501 51.2345C33.8334 51.3345 33.5167 51.4178 33.2001 51.4845C33.0834 51.5178 32.9667 51.5345 32.8334 51.5678C32.5334 51.6345 32.2167 51.7012 31.9167 51.7678C31.8501 51.7845 31.8001 51.7845 31.7334 51.8012C31.6334 51.8178 31.5167 51.8345 31.4167 51.8512C31.2667 51.8678 31.1334 51.9012 30.9834 51.9178C30.9167 51.9345 30.8501 51.9345 30.7834 51.9512C30.7001 51.9678 30.6001 51.9845 30.5001 51.9845C30.2334 52.0178 29.9501 52.0512 29.6834 52.0845C29.6001 52.1012 29.5001 52.1012 29.4167 52.1178H29.4001C29.2834 52.1345 29.1667 52.1345 29.0501 52.1512C28.9334 52.1678 28.8167 52.1678 28.7001 52.1678C28.6334 52.1678 28.5501 52.1845 28.4834 52.1845C28.3501 52.1845 28.2334 52.2012 28.1167 52.2012C27.9501 52.2012 27.8001 52.2178 27.6334 52.2178C27.4667 52.2178 27.3167 52.2178 27.1501 52.2178C27.0334 52.2178 26.9167 52.2178 26.8001 52.2178C19.7834 52.1178 13.4501 49.1345 8.95008 44.4012C8.95008 44.4012 8.95008 44.3845 8.93341 44.3845C9.45008 43.3678 11.3667 41.5345 13.3667 40.0178C15.9001 38.1012 19.4834 36.9178 19.4834 36.9178C19.4834 36.9178 21.8334 36.5345 30.5501 38.3512C37.2001 39.7512 40.0334 45.4345 41.0001 48.0512Z" fill="#F7D3B5"/>
<path d="M32.4001 42.9678C32.0501 44.6845 29.7834 45.7011 25.9667 44.1678C21.2834 42.2678 19.4834 36.9178 19.4834 36.9178C19.2334 33.0845 18.6501 29.8011 18.6501 29.8011C24.0668 29.3345 30.4667 35.6678 30.4667 35.6678L31.2001 38.8011C31.2667 39.0678 31.4001 39.3011 31.6001 39.4678C31.9501 40.0678 32.6334 41.8678 32.4001 42.9678Z" fill="#F7D3B5"/>
<path d="M31.6001 39.4845C28.4168 39.3178 26.0668 38.8512 23.5501 34.3345C25.6834 36.2178 28.2001 36.9345 30.8501 37.2678L31.2001 38.8012C31.2668 39.0845 31.4001 39.3178 31.6001 39.4845Z" fill="#EFBDA5"/>
<path d="M38.1834 19.4012C38.4834 20.8012 38.6334 21.9345 37.8167 25.6678C37.0001 29.4012 38.5667 33.1345 34.6334 36.5512C31.9834 38.8512 27.3501 39.2845 23.6501 36.7678C22.4001 35.9178 21.2501 34.7345 20.3167 33.1845C19.5834 31.9678 18.7334 30.8178 17.7834 29.7678C16.4667 28.3345 14.8834 25.4512 15.6667 20.3512C16.9334 12.0512 25.1501 11.1012 30.0001 12.0178C34.8501 12.9345 37.3667 15.7012 38.1834 19.4012Z" fill="#F7D3B5"/>
<path d="M22.2334 25.9179C22.2334 25.9179 21.7168 23.4179 19.2834 23.7179C17.1834 23.9845 16.4501 29.0179 21.2168 30.4179" fill="#F7D3B5"/>
<path d="M21.0667 28.1345C21.0667 28.1345 20.4667 27.7512 20.5334 27.0845C20.6334 26.3012 20.5334 25.8178 20.1667 25.6678C19.2501 25.2845 19.0667 26.3512 19.1001 26.4845" stroke="#423232" stroke-width="0.373253" stroke-miterlimit="10" stroke-linecap="round" stroke-linejoin="round"/>
<path d="M33.7834 29.7512C33.7834 29.7512 34.4168 29.7845 35.0168 29.0678C35.3501 28.6678 35.6334 28.1678 35.4501 28.0178C35.2668 27.8512 32.2501 28.3178 32.0501 28.7178C31.8501 29.1178 33.0168 29.7512 33.7834 29.7512Z" fill="#EFBDA5"/>
<path d="M34.2834 24.1511C34.2834 24.1511 34.3168 25.7345 35.3334 27.5011C35.7834 28.2845 35.1001 29.5678 33.6168 29.7845" stroke="#423232" stroke-width="0.373253" stroke-miterlimit="10" stroke-linecap="round" stroke-linejoin="round"/>
<path opacity="0.42" d="M25.2501 30.6012C26.1982 30.6012 26.9668 29.9669 26.9668 29.1845C26.9668 28.4021 26.1982 27.7678 25.2501 27.7678C24.302 27.7678 23.5334 28.4021 23.5334 29.1845C23.5334 29.9669 24.302 30.6012 25.2501 30.6012Z" fill="#ED938A"/>
<path opacity="0.42" d="M37.5501 27.8012C37.5001 28.7345 37.5167 29.6512 37.4501 30.5678C36.7167 30.4012 36.1834 29.8512 36.1834 29.2012C36.1834 28.5012 36.7667 27.9345 37.5501 27.8012Z" fill="#ED938A"/>
<path d="M46.5478 58.3577H4.41443C4.41443 58.3577 4.66443 50.6244 7.19776 45.1077C9.11443 40.9411 13.6311 38.6244 16.9978 37.4244C17.9478 37.0911 18.8144 36.8411 19.4811 36.6577C19.4811 36.7411 19.4978 36.8077 19.4978 36.8911C19.4978 36.8911 21.2978 42.2411 25.9811 44.1411C29.7978 45.6911 32.0644 44.6577 32.4144 42.9411C32.6311 41.8411 31.9478 40.0411 31.5978 39.4577C31.3978 39.2911 31.2644 39.0411 31.1978 38.7911L31.0644 38.2411C31.3811 38.1744 31.6811 38.0911 31.9811 37.9911C32.0811 37.9577 32.1644 37.9244 32.2644 37.8911C34.4144 38.4577 37.6478 39.8077 41.4644 43.0077C45.7811 46.6244 46.5478 58.3577 46.5478 58.3577Z" fill="#CE3E3E"/>
<mask id="mask1_2_722" style="mask-type:alpha" maskUnits="userSpaceOnUse" x="4" y="36" width="43" height="23">
<path d="M46.5477 58.3574H4.41437C4.41437 58.3574 4.66437 50.6241 7.1977 45.1074C9.11437 40.9408 13.631 38.6241 16.9977 37.4241C17.9477 37.0908 18.8144 36.8408 19.481 36.6574C19.481 36.7408 19.4977 36.8074 19.4977 36.8908C19.4977 36.8908 21.2977 42.2408 25.981 44.1408C29.7977 45.6908 32.0644 44.6574 32.4144 42.9408C32.631 41.8408 31.9477 40.0408 31.5977 39.4574C31.3977 39.2908 31.2644 39.0408 31.1977 38.7908L31.0644 38.2408C31.381 38.1741 31.681 38.0908 31.981 37.9908C32.081 37.9574 32.1644 37.9241 32.2644 37.8908C34.4144 38.4574 37.6477 39.8074 41.4644 43.0074C45.781 46.6241 46.5477 58.3574 46.5477 58.3574Z" fill="#CE3E3E"/>
</mask>
<g mask="url(#mask1_2_722)">
<path d="M21.7083 39.6305L19.4692 41.8696L21.7083 44.1088L23.9475 41.8696L21.7083 39.6305Z" fill="white"/>
<path d="M30.4776 39.637L28.2385 41.8762L30.4776 44.1153L32.7168 41.8762L30.4776 39.637Z" fill="white"/>
<path d="M12.9272 39.6356L10.688 41.8748L12.9272 44.1139L15.1664 41.8748L12.9272 39.6356Z" fill="white"/>
<path d="M39.1414 39.6304L36.9023 41.8695L39.1414 44.1087L41.3806 41.8695L39.1414 39.6304Z" fill="white"/>
<path d="M17.6525 48.3042L15.4133 50.5433L17.6525 52.7825L19.8916 50.5433L17.6525 48.3042Z" fill="white"/>
<path d="M26.4335 48.299L24.1944 50.5382L26.4335 52.7773L28.6727 50.5382L26.4335 48.299Z" fill="white"/>
<path d="M35.0856 48.3041L32.8464 50.5432L35.0856 52.7824L37.3247 50.5432L35.0856 48.3041Z" fill="white"/>
</g>
<path d="M29.681 43.4577C29.681 43.4577 28.531 44.3244 28.781 45.1411C29.0144 45.9577 31.2477 45.8244 31.681 45.1411C32.0977 44.4577 30.231 43.3077 29.681 43.4577Z" fill="#CE3E3E"/>
<path d="M29.6644 43.44C29.6798 43.4553 29.6798 43.4553 29.6951 43.4707C29.6951 43.4553 29.6951 43.44 29.6951 43.44C29.6798 43.4247 29.6644 43.4247 29.6644 43.44Z" fill="white"/>
<path d="M25.2478 42.7744C20.5644 40.8744 19.4978 36.891 19.4978 36.891C19.4978 36.8077 19.4811 36.741 19.4811 36.6577C19.4644 36.4077 19.4144 35.691 19.3811 35.441C19.0811 35.541 18.7144 35.741 18.3811 35.9244C17.7811 36.2744 17.2978 36.7744 16.9978 37.391C16.9978 37.4077 16.9811 37.4077 16.9811 37.4244C16.9478 41.8077 21.2311 45.1577 24.5811 46.3577C26.6144 47.091 28.8978 46.041 29.5478 43.991C29.5978 43.8077 29.6478 43.641 29.6811 43.4577C29.6644 43.441 29.6644 43.441 29.6478 43.4244C28.5644 43.6577 27.0811 43.5077 25.2478 42.7744Z" fill="white"/>
<path d="M33.7644 42.0744C33.4811 39.7577 32.7311 38.8577 31.9978 37.9744C31.6978 38.0744 31.1978 38.191 30.8811 38.2577C30.8811 38.2577 31.9644 39.6577 31.6811 41.5577C31.5478 42.4577 30.8644 43.141 29.6978 43.4077C29.6978 43.4244 29.6978 43.4244 29.6811 43.441C30.1144 43.941 30.5978 44.3744 31.1311 44.7244C31.9978 45.3077 33.1978 44.9244 33.5478 43.941C33.7644 43.3744 33.8478 42.7244 33.7644 42.0744Z" fill="white"/>
<path d="M12.6644 58.3577L11.9144 52.1911" stroke="#544D4D" stroke-width="0.373253" stroke-miterlimit="10" stroke-linecap="round" stroke-linejoin="round"/>
<path d="M41.7644 50.0744C41.7644 50.0744 41.2644 51.2911 41.4144 52.5077C41.5644 53.7244 41.9977 55.5077 41.381 58.3577" stroke="#544D4D" stroke-width="0.373253" stroke-miterlimit="10" stroke-linecap="round" stroke-linejoin="round"/>
<path d="M28.912 24.7018C28.912 24.7184 28.912 24.7351 28.912 24.7351L28.8953 25.2018C28.8787 25.6018 28.5453 25.9018 28.1453 25.8851C27.7453 25.8684 27.4453 25.5184 27.4787 25.1351L27.4953 24.6684C27.4953 24.5851 27.5287 24.4851 27.562 24.4184L28.8953 24.4851C28.8953 24.5518 28.912 24.6184 28.912 24.7018Z" fill="#423232"/>
<path d="M35.8785 25.0684L35.8619 25.5017C35.8452 25.8684 35.5285 26.1517 35.1619 26.1351C34.7952 26.1184 34.5119 25.8017 34.5285 25.4351L34.5452 25.0017C34.5452 24.9184 34.5619 24.8351 34.5952 24.7684L35.8452 24.8184C35.8785 24.9017 35.8785 24.9851 35.8785 25.0684Z" fill="#423232"/>
<path d="M30.5786 22.4183C30.9452 22.4683 31.2286 22.085 31.0952 21.7183C31.0286 21.5183 30.9119 21.335 30.7286 21.2183C30.1619 20.8683 28.0452 20.835 26.9286 21.635C25.9452 22.3683 28.9119 22.185 30.5786 22.4183Z" fill="#423232"/>
<path d="M35.1952 22.6017C34.8952 22.6017 34.7119 22.2184 34.8619 21.9017C34.9452 21.735 35.0619 21.585 35.2285 21.5017C35.7452 21.2517 37.1286 21.4017 37.7452 22.2517C38.2952 23.0017 36.5786 22.585 35.1952 22.6017Z" fill="#423232"/>
<path d="M29.9952 24.5184L28.8786 24.4684L27.5452 24.4184L27.2452 24.4017" stroke="#423232" stroke-width="0.373253" stroke-miterlimit="10" stroke-linecap="round" stroke-linejoin="round"/>
<path d="M36.5786 24.8517L35.8453 24.8184L34.5953 24.7684H34.5453" stroke="#423232" stroke-width="0.373253" stroke-miterlimit="10" stroke-linecap="round" stroke-linejoin="round"/>
<path d="M31.4917 31.391C30.7825 31.814 29.5259 31.3537 28.9412 30.6445" stroke="#423232" stroke-width="0.373253" stroke-miterlimit="10" stroke-linecap="round" stroke-linejoin="round"/>
<path d="M40.3664 20.4711C39.8998 21.9211 38.8831 23.2711 38.1664 24.0711C38.6164 21.5378 38.4831 20.5378 38.2164 19.3544C38.1331 18.9878 38.0331 18.6378 37.9164 18.2878C35.2998 20.8378 30.8164 18.3211 30.8164 18.3211C30.8164 18.3211 29.8664 19.1044 28.1998 18.9211C26.4164 18.7378 25.9331 17.6378 25.9331 17.6378C25.4498 21.0044 22.2664 19.7211 22.8498 23.0711C23.0164 23.9878 23.0164 24.8711 22.2331 25.7878C22.0998 25.3211 21.4498 23.4211 19.3164 23.6878C17.2998 23.9378 16.5331 28.6044 20.6998 30.2044C20.6498 31.7544 18.1831 35.6378 18.2664 31.3044C18.2831 30.4211 15.7498 30.4878 14.3664 27.5711C13.7664 26.3044 13.9331 25.1211 14.1998 24.2711C14.4664 23.4544 14.4498 22.5711 14.1831 21.7544C13.8831 20.8044 13.6498 19.3711 14.1998 17.6378C15.1331 14.6711 17.1331 13.9878 17.6498 13.6378C18.1664 13.2878 17.9998 10.7211 22.3831 9.28776C25.2164 8.35443 28.2498 9.9711 28.8831 9.85443C29.5164 9.73776 33.9498 6.8211 37.3664 9.5711C40.6664 12.2378 39.4331 15.3878 39.4331 15.3878C39.4331 15.3878 41.4998 16.9711 40.3664 20.4711Z" fill="#423232"/>
<path d="M30.8167 27.7331H26.9334C25.9167 27.7331 25.1 26.9165 25.1 25.8998V24.3165C25.1 23.2998 25.9167 22.4831 26.9334 22.4831H30.8167C31.8334 22.4831 32.65 23.2998 32.65 24.3165V25.8998C32.65 26.9165 31.8167 27.7331 30.8167 27.7331Z" stroke="#423232" stroke-width="0.373253" stroke-miterlimit="10" stroke-linecap="round" stroke-linejoin="round"/>
<path d="M37.5167 22.4831H35.6C34.9334 22.4831 34.3834 23.0331 34.3834 23.6998V25.1498C34.6167 25.9831 34.95 26.7831 35.45 27.4998C35.5 27.4998 35.55 27.5165 35.6 27.5165H37.5167C38.1834 27.5165 38.7334 26.9665 38.7334 26.2998V23.6998C38.75 23.0165 38.2 22.4831 37.5167 22.4831Z" stroke="#423232" stroke-width="0.373253" stroke-miterlimit="10" stroke-linecap="round" stroke-linejoin="round"/>
<path d="M32.65 23.9998C33.2167 23.9331 33.9334 23.8831 34.5334 23.9498" stroke="#423232" stroke-width="0.373253" stroke-miterlimit="10" stroke-linecap="round" stroke-linejoin="round"/>
<path d="M25.1 24.1165L21.2333 24.2498" stroke="#423232" stroke-width="0.373253" stroke-miterlimit="10" stroke-linecap="round" stroke-linejoin="round"/>
</g>
</g>
<rect x="1" y="1" width="52" height="52" rx="26" stroke="#FFB531" stroke-width="2"/>
<g clip-path="url(#clip1_2_722)">
<rect x="32" y="3" width="50" height="50" rx="25" fill="#8E99D7"/>
<mask id="mask2_2_722" style="mask-type:alpha" maskUnits="userSpaceOnUse" x="32" y="3" width="50" height="50">
<path d="M57 53C43.1812 53 32 41.8022 32 28C32 14.1812 43.1977 3 57 3C70.8188 3 82 14.1977 82 28C82.0166 41.8188 70.8188 53 57 53Z" fill="#F7C0B5"/>
</mask>
<g mask="url(#mask2_2_722)">
<path d="M70.9666 49.0506C70.8499 49.134 70.7166 49.2173 70.5999 49.3006C70.4666 49.384 70.3499 49.4673 70.2166 49.534C70.0999 49.6006 69.9999 49.6673 69.8832 49.734C69.8666 49.7506 69.8499 49.7506 69.8332 49.7673C69.4499 50.0006 69.0499 50.2173 68.6499 50.4173C68.5332 50.484 68.3999 50.5506 68.2832 50.6006C68.2832 50.6006 68.2666 50.6173 68.2499 50.6173C68.1166 50.684 67.9832 50.7506 67.8499 50.8173C67.5832 50.9506 67.2999 51.0673 67.0332 51.184C66.8999 51.2506 66.7499 51.3006 66.6166 51.3506C66.4832 51.4006 66.3332 51.4673 66.1999 51.5173C66.0666 51.5673 65.9166 51.634 65.7832 51.684C65.7832 51.684 65.7832 51.684 65.7666 51.684C65.6332 51.734 65.4832 51.784 65.3499 51.834C65.0499 51.934 64.7332 52.034 64.4332 52.134C64.3332 52.1673 64.2166 52.2006 64.1166 52.234C63.7999 52.334 63.4832 52.4173 63.1666 52.484C63.0499 52.5173 62.9332 52.534 62.7999 52.5673C62.4999 52.634 62.1832 52.7006 61.8832 52.7673C61.8166 52.784 61.7666 52.784 61.6999 52.8006C61.5999 52.8173 61.4832 52.834 61.3832 52.8506C61.2332 52.8673 61.0999 52.9006 60.9499 52.9173C60.8832 52.934 60.8166 52.934 60.7499 52.9506C60.6666 52.9673 60.5666 52.984 60.4666 52.984C60.1999 53.0173 59.9166 53.0506 59.6499 53.084C59.5666 53.1006 59.4666 53.1006 59.3832 53.1173H59.3666C59.2499 53.134 59.1332 53.134 59.0166 53.1506C58.8999 53.1673 58.7832 53.1673 58.6666 53.1673C58.5999 53.1673 58.5166 53.184 58.4499 53.184C58.3166 53.184 58.1999 53.2006 58.0832 53.2006C57.9166 53.2006 57.7666 53.2173 57.5999 53.2173C57.4332 53.2173 57.2832 53.2173 57.1166 53.2173C56.9999 53.2173 56.8832 53.2173 56.7666 53.2173C49.7499 53.1173 43.4166 50.134 38.9166 45.4006C38.9166 45.4006 38.9166 45.384 38.8999 45.384C39.4166 44.3673 41.3332 42.534 43.3332 41.0173C45.8666 39.1006 49.4499 37.9173 49.4499 37.9173C49.4499 37.9173 51.7999 37.534 60.5166 39.3506C67.1666 40.7506 69.9999 46.434 70.9666 49.0506Z" fill="#FEE4BF"/>
<path d="M62.3666 43.9673C62.0166 45.6839 59.7499 46.7006 55.9332 45.1673C51.2499 43.2673 49.4499 37.9173 49.4499 37.9173C49.1999 34.0839 48.6166 30.8006 48.6166 30.8006C54.0332 30.3339 60.4332 36.6673 60.4332 36.6673L61.1666 39.8006C61.2332 40.0673 61.3666 40.3006 61.5666 40.4673C61.9166 41.0673 62.5999 42.8673 62.3666 43.9673Z" fill="#FEE4BF"/>
<path d="M61.5665 40.4839C58.3832 40.3173 56.0332 39.8506 53.5165 35.3339C55.6499 37.2173 58.1665 37.9339 60.8165 38.2673L61.1665 39.8006C61.2332 40.0839 61.3665 40.3173 61.5665 40.4839Z" fill="#EFBD9C"/>
<path d="M68.1499 20.4006C68.4499 21.8006 68.5999 22.9339 67.7832 26.6673C66.9666 30.4006 68.5332 34.1339 64.5999 37.5506C61.9499 39.8506 57.3166 40.2839 53.6166 37.7673C52.3666 36.9173 51.2166 35.7339 50.2832 34.1839C49.5499 32.9673 48.6999 31.8173 47.7499 30.7673C46.4332 29.3339 44.8499 26.4506 45.6332 21.3506C46.8999 13.0506 55.1166 12.1006 59.9666 13.0173C64.8166 13.9339 67.3332 16.7006 68.1499 20.4006Z" fill="#FEE4BF"/>
<path d="M52.1999 26.9173C52.1999 26.9173 51.6833 24.4173 49.2499 24.7173C47.1499 24.984 46.4166 30.0173 51.1833 31.4173" fill="#FEE4BF"/>
<path d="M51.0332 29.134C51.0332 29.134 50.4332 28.7506 50.4999 28.084C50.5999 27.3006 50.4999 26.8173 50.1332 26.6673C49.2166 26.284 49.0332 27.3506 49.0666 27.484" stroke="#423232" stroke-width="0.373253" stroke-miterlimit="10" stroke-linecap="round" stroke-linejoin="round"/>
<path d="M63.7499 30.7506C63.7499 30.7506 64.3832 30.784 64.9832 30.0673C65.3165 29.6673 65.5999 29.1673 65.4165 29.0173C65.2332 28.8506 62.2165 29.3173 62.0165 29.7173C61.8165 30.1173 62.9832 30.7506 63.7499 30.7506Z" fill="#EFBD9C"/>
<path d="M64.2499 25.1506C64.2499 25.1506 64.2832 26.7339 65.2999 28.5006C65.7499 29.2839 65.0666 30.5672 63.5833 30.7839" stroke="#423232" stroke-width="0.373253" stroke-miterlimit="10" stroke-linecap="round" stroke-linejoin="round"/>
<path d="M66.8665 34.4006C66.8665 34.4173 66.8665 34.4173 66.8665 34.4006C66.8499 34.4173 66.8499 34.4173 66.8665 34.4006C66.4499 35.484 65.7665 36.5173 64.5999 37.534C61.9499 39.834 57.3165 40.2673 53.6165 37.7506C53.1999 37.4673 52.7999 37.1506 52.4165 36.8006C52.1499 36.4673 51.9165 36.1173 51.7165 35.7506C50.5165 33.5006 51.0332 31.4006 51.0332 31.4006C51.0332 31.4006 51.7165 31.4173 52.5332 33.0173C53.2165 34.3506 55.8499 34.3006 56.9332 31.8006C58.1332 29.0173 61.1332 30.234 61.8165 30.5006C62.4999 30.7673 63.5665 30.7673 63.5665 30.7673C66.2665 30.734 65.4499 32.5506 65.7332 33.5506C66.1499 34.9173 66.8665 34.4006 66.8665 34.4006Z" fill="#423232"/>
<path d="M76.57 59.3977H34.4367C34.4367 59.3977 34.62 51.631 37.22 46.1477C39.1367 42.081 44.07 39.7644 47.5034 38.581C48.27 38.3144 48.97 38.1144 49.5367 37.9644C49.72 38.4644 51.57 43.3644 56.0034 45.1644C59.82 46.7144 62.0867 45.681 62.4367 43.9644C62.6534 42.8644 61.97 41.0644 61.62 40.481C61.42 40.3144 61.2867 40.0644 61.22 39.8144L61.0867 39.2644C61.3867 39.1977 61.67 39.1144 61.97 39.031C62.12 39.0644 62.27 39.0977 62.42 39.131C64.57 39.6477 67.7534 40.8977 71.4867 44.0477C75.8034 47.6477 76.57 59.3977 76.57 59.3977Z" fill="#FFDE55"/>
<path d="M63.0367 48.4977C62.4534 48.6644 60.42 46.5477 60.0034 46.181C59.62 46.6144 56.92 49.6644 55.5867 49.4644C54.12 49.2477 50.37 46.731 48.47 42.781C47.42 40.6144 47.3867 39.2977 47.5034 38.581C47.5534 38.2477 47.6534 38.031 47.7034 37.9144C47.87 37.531 49.07 36.0477 49.37 36.0644V36.081C49.52 37.681 50.0367 39.231 50.9034 40.581C51.97 42.231 53.6534 44.2144 56.0034 45.1644C59.82 46.7144 61.8034 45.181 62.1367 43.4644C62.3534 42.3644 61.97 41.0644 61.62 40.481C61.42 40.3144 61.2867 40.0644 61.22 39.8144L61.0867 39.2644C61.3867 39.1977 61.67 39.1144 61.97 39.031C62.0534 38.9977 62.1534 38.981 62.2367 38.9477C62.2867 39.0144 62.3534 39.081 62.4034 39.1477C63.1034 39.9477 63.8367 41.0477 64.2367 42.9144C64.92 45.8977 63.6867 48.2977 63.0367 48.4977Z" fill="#423232"/>
<path d="M59.9534 46.081C59.9534 46.081 61.1701 46.781 61.1368 47.3644C61.1034 47.9477 61.4534 49.7977 61.4534 49.7977" stroke="#423232" stroke-width="0.373253" stroke-miterlimit="10" stroke-linecap="round" stroke-linejoin="round"/>
<path d="M59.9367 48.2977C60.1577 48.2977 60.3367 48.1186 60.3367 47.8977C60.3367 47.6768 60.1577 47.4977 59.9367 47.4977C59.7158 47.4977 59.5367 47.6768 59.5367 47.8977C59.5367 48.1186 59.7158 48.2977 59.9367 48.2977Z" fill="#423232"/>
<path d="M60.0867 49.8643C60.3076 49.8643 60.4867 49.6852 60.4867 49.4643C60.4867 49.2434 60.3076 49.0643 60.0867 49.0643C59.8658 49.0643 59.6867 49.2434 59.6867 49.4643C59.6867 49.6852 59.8658 49.8643 60.0867 49.8643Z" fill="#423232"/>
<path d="M71.7867 51.1143C71.7867 51.1143 71.2867 52.331 71.4367 53.5477C71.5867 54.7643 72.02 56.5477 71.4034 59.3977" stroke="#544D4D" stroke-width="0.373253" stroke-miterlimit="10" stroke-linecap="round" stroke-linejoin="round"/>
<path d="M58.912 25.7017C58.912 25.7184 58.912 25.7351 58.912 25.7351L58.8953 26.2017C58.8787 26.6017 58.5453 26.9018 58.1453 26.8851C57.7453 26.8684 57.4453 26.5184 57.4787 26.1351L57.4953 25.6684C57.4953 25.5851 57.5287 25.4851 57.562 25.4184L58.8953 25.4851C58.8953 25.5517 58.912 25.6184 58.912 25.7017Z" fill="#423232"/>
<path d="M65.8785 26.0684L65.8619 26.5017C65.8452 26.8684 65.5285 27.1517 65.1619 27.1351C64.7952 27.1184 64.5119 26.8017 64.5285 26.4351L64.5452 26.0017C64.5452 25.9184 64.5619 25.8351 64.5952 25.7684L65.8452 25.8184C65.8785 25.9017 65.8785 25.9851 65.8785 26.0684Z" fill="#423232"/>
<path d="M60.5786 23.4183C60.9452 23.4683 61.2286 23.085 61.0952 22.7183C61.0286 22.5183 60.9119 22.335 60.7286 22.2183C60.1619 21.8683 58.0452 21.835 56.9286 22.635C55.9452 23.3683 58.9119 23.185 60.5786 23.4183Z" fill="#423232"/>
<path d="M65.1952 23.6017C64.8952 23.6017 64.7119 23.2184 64.8619 22.9017C64.9452 22.735 65.0619 22.585 65.2285 22.5017C65.7452 22.2517 67.1285 22.4017 67.7452 23.2517C68.2952 24.0017 66.5786 23.585 65.1952 23.6017Z" fill="#423232"/>
<path d="M59.9952 25.5184L58.8786 25.4684L57.5452 25.4184L57.2452 25.4017" stroke="#423232" stroke-width="0.373253" stroke-miterlimit="10" stroke-linecap="round" stroke-linejoin="round"/>
<path d="M66.5786 25.8517L65.8453 25.8184L64.5953 25.7684H64.5453" stroke="#423232" stroke-width="0.373253" stroke-miterlimit="10" stroke-linecap="round" stroke-linejoin="round"/>
<path d="M61.6731 32.4221C61.6856 32.6212 61.5363 32.9695 61.2626 33.2184C59.8566 32.3599 59.2221 32.8078 59.2221 32.8078C58.7244 32.0489 58.8364 31.0162 60.0433 31.8C60.8893 32.335 61.3994 32.4221 61.6731 32.4221Z" fill="#423232"/>
<path d="M61.2626 33.2184C60.964 33.4797 60.5161 33.6414 59.9064 33.3926C59.6202 33.2806 59.3963 33.0567 59.2221 32.8078C59.2221 32.8078 59.8566 32.3599 61.2626 33.2184Z" fill="#FE9DAB"/>
<path d="M61.9096 32.3724C61.9096 32.3724 61.387 32.6585 60.0433 31.8C58.4383 30.7674 58.7618 32.9322 59.894 33.3926C61.076 33.8778 61.6856 32.8203 61.6732 32.4221" stroke="#423232" stroke-width="0.373253" stroke-miterlimit="10" stroke-linecap="round" stroke-linejoin="round"/>
<path d="M59.2221 32.8078C59.2221 32.8078 59.8566 32.3599 61.2626 33.2184" stroke="#423232" stroke-width="0.373253" stroke-miterlimit="10" stroke-linecap="round" stroke-linejoin="round"/>
<path d="M71.4551 18.4057C71.4551 16.3057 70.0385 14.5557 68.1218 14.0057C68.2218 13.589 68.2384 13.1557 68.1384 12.7057C67.8051 11.2557 66.5051 10.239 65.0218 10.339C64.4385 10.3723 63.8885 10.589 63.4385 10.9223C62.7385 9.30567 61.1218 8.17233 59.2551 8.17233C57.2718 8.17233 55.5885 9.439 54.9551 11.2057C54.2551 10.3723 53.2051 9.839 52.0385 9.839C50.0051 9.839 48.3385 11.439 48.2385 13.4557C47.9218 13.3557 47.5718 13.3057 47.2218 13.3223C45.8718 13.4057 44.7718 14.5057 44.6718 15.8557C44.6385 16.3057 44.7218 16.739 44.8885 17.139C42.9885 17.339 41.5051 18.9557 41.5051 20.9057C41.5051 22.3723 42.3385 23.6557 43.5718 24.289C43.0718 24.789 42.7551 25.4723 42.7551 26.2223C42.7551 27.6223 43.8218 28.789 45.1885 28.939C45.1051 29.2057 45.0718 29.5223 45.1718 29.839C45.3218 30.389 45.7718 30.8223 46.3218 30.939C46.6551 31.0057 46.9718 30.9723 47.2551 30.8557C47.4051 31.0723 47.5551 31.2557 47.6885 31.4223C47.8551 31.6223 47.9885 31.8057 48.1218 31.989C48.8885 33.089 50.6385 32.6057 50.7051 31.2723C50.7051 31.2557 50.7051 31.2557 50.7051 31.239C46.5385 29.639 47.2885 24.989 49.3218 24.7223C51.4551 24.4557 52.1218 26.3557 52.2385 26.8223C54.5218 25.3557 51.2718 20.0723 54.6218 18.5057C57.6051 17.1223 60.7385 19.2223 64.5718 19.739C65.9885 19.939 67.3218 18.539 67.9218 19.3223C68.0385 19.6723 68.1384 20.0223 68.2218 20.389C68.4884 21.5723 68.6218 22.5723 68.1718 25.1057C69.2718 24.5057 69.8051 23.6057 69.9051 22.7223C69.9384 22.4223 69.9385 22.1057 69.9218 21.8057C70.8551 20.989 71.4551 19.7723 71.4551 18.4057Z" fill="#423232"/>
</g>
</g>
<rect x="31" y="2" width="52" height="52" rx="26" stroke="#FFB531" stroke-width="2"/>
<g clip-path="url(#clip2_2_722)">
<rect x="62" y="4" width="50" height="50" rx="25" fill="#FBBF6A"/>
<mask id="mask3_2_722" style="mask-type:alpha" maskUnits="userSpaceOnUse" x="62" y="4" width="50" height="50">
<path d="M87 54C73.1812 54 62 42.8022 62 29C62 15.1812 73.1977 4 87 4C100.819 4 112 15.1977 112 29C112.017 42.8188 100.819 54 87 54Z" fill="#F7C0B5"/>
</mask>
<g mask="url(#mask3_2_722)">
<path d="M101.033 50.051C100.917 50.1344 100.783 50.2177 100.667 50.301C100.533 50.3844 100.417 50.4677 100.283 50.5344C100.167 50.601 100.067 50.6677 99.9499 50.7344C99.9332 50.751 99.9166 50.751 99.8999 50.7677C99.5166 51.001 99.1166 51.2177 98.7166 51.4177C98.5999 51.4844 98.4666 51.551 98.3499 51.601C98.3499 51.601 98.3332 51.6177 98.3166 51.6177C98.1832 51.6844 98.0499 51.751 97.9166 51.8177C97.6499 51.951 97.3666 52.0677 97.0999 52.1844C96.9666 52.251 96.8166 52.301 96.6832 52.351C96.5499 52.401 96.3999 52.4677 96.2666 52.5177C96.1332 52.5677 95.9832 52.6344 95.8499 52.6844C95.8499 52.6844 95.8499 52.6844 95.8332 52.6844C95.6999 52.7344 95.5499 52.7844 95.4166 52.8344C95.1166 52.9344 94.7999 53.0344 94.4999 53.1344C94.3999 53.1677 94.2832 53.201 94.1832 53.2344C93.8666 53.3344 93.5499 53.4177 93.2332 53.4844C93.1166 53.5177 92.9999 53.5344 92.8666 53.5677C92.5666 53.6344 92.2499 53.701 91.9499 53.7677C91.8832 53.7844 91.8332 53.7844 91.7666 53.801C91.6666 53.8177 91.5499 53.8344 91.4499 53.851C91.2999 53.8677 91.1666 53.901 91.0166 53.9177C90.9499 53.9344 90.8832 53.9344 90.8166 53.951C90.7332 53.9677 90.6332 53.9844 90.5332 53.9844C90.2666 54.0177 89.9832 54.051 89.7166 54.0844C89.6332 54.101 89.5332 54.101 89.4499 54.1177H89.4332C89.3166 54.1344 89.1999 54.1344 89.0832 54.151C88.9666 54.1677 88.8499 54.1677 88.7332 54.1677C88.6666 54.1677 88.5832 54.1844 88.5166 54.1844C88.3832 54.1844 88.2666 54.201 88.1499 54.201C87.9832 54.201 87.8332 54.2177 87.6666 54.2177C87.4999 54.2177 87.3499 54.2177 87.1832 54.2177C87.0666 54.2177 86.9499 54.2177 86.8332 54.2177C79.8166 54.1177 73.4832 51.1344 68.9832 46.401C68.9832 46.401 68.9832 46.3844 68.9666 46.3844C69.4832 45.3677 71.3999 43.5344 73.3999 42.0177C75.9332 40.101 79.5166 38.9177 79.5166 38.9177C79.5166 38.9177 81.8666 38.5344 90.5832 40.351C97.2332 41.751 100.067 47.4344 101.033 50.051Z" fill="#AD827B"/>
<path d="M92.4332 44.9677C92.0832 46.6843 89.8166 47.701 85.9999 46.1677C81.3166 44.2677 79.5166 38.9177 79.5166 38.9177C79.2666 35.0843 78.6832 31.801 78.6832 31.801C84.0999 31.3343 90.4999 37.6677 90.4999 37.6677L91.2332 40.801C91.2999 41.0677 91.4332 41.301 91.6332 41.4677C91.9832 42.0677 92.6666 43.8677 92.4332 44.9677Z" fill="#AD827B"/>
<path d="M91.6333 41.4844C88.4499 41.3177 86.0999 40.851 83.5833 36.3344C85.7166 38.2177 88.2333 38.9344 90.8833 39.2677L91.2333 40.801C91.2999 41.0844 91.4333 41.3177 91.6333 41.4844Z" fill="#8E5650"/>
<path d="M98.2166 21.401C98.5166 22.801 98.6666 23.9344 97.8499 27.6677C97.0332 31.401 98.5999 35.1344 94.6666 38.551C92.0166 40.851 87.3832 41.2844 83.6832 38.7677C82.4332 37.9177 81.2832 36.7344 80.3499 35.1844C79.6166 33.9677 78.7665 32.8177 77.8165 31.7677C76.4999 30.3344 74.9165 27.451 75.6999 22.351C76.9665 14.051 85.1832 13.101 90.0332 14.0177C94.8832 14.9344 97.3999 17.701 98.2166 21.401Z" fill="#AD827B"/>
<path d="M82.2666 27.9177C82.2666 27.9177 81.7499 25.4177 79.3166 25.7177C77.2166 25.9844 76.4833 31.0177 81.2499 32.4177" fill="#AD827B"/>
<path d="M81.0999 30.1344C81.0999 30.1344 80.4999 29.751 80.5666 29.0844C80.6666 28.301 80.5666 27.8177 80.1999 27.6677C79.2833 27.2844 79.0999 28.351 79.1333 28.4844" stroke="#423232" stroke-width="0.373253" stroke-miterlimit="10" stroke-linecap="round" stroke-linejoin="round"/>
<path d="M93.8166 31.751C93.8166 31.751 94.4499 31.7844 95.0499 31.0677C95.3832 30.6677 95.6666 30.1677 95.4832 30.0177C95.2999 29.851 92.2832 30.3177 92.0832 30.7177C91.8832 31.1177 93.0499 31.751 93.8166 31.751Z" fill="#8E605C"/>
<path d="M94.3166 26.151C94.3166 26.151 94.3499 27.7343 95.3666 29.501C95.8166 30.2843 95.1332 31.5676 93.6499 31.7843" stroke="#423232" stroke-width="0.373253" stroke-miterlimit="10" stroke-linecap="round" stroke-linejoin="round"/>
<path d="M81.0918 40.452C81.0918 40.452 80.7584 38.3853 80.1918 38.502C77.5584 39.102 69.8751 41.3353 67.1918 47.1353C64.6584 52.652 64.4251 60.3853 64.4251 60.3853H106.575C106.575 60.3853 105.808 48.6353 101.508 45.0353C98.9585 42.8853 96.6585 41.5687 94.7751 40.7687C92.2751 39.702 89.7584 41.9353 89.0418 41.8853C87.7584 41.8187 81.0918 40.452 81.0918 40.452Z" fill="#544D4D"/>
<path d="M101.775 52.1022C101.775 52.1022 101.275 53.3189 101.425 54.5355C101.575 55.7522 102.008 57.5355 101.392 60.3855" stroke="white" stroke-width="0.373253" stroke-miterlimit="10" stroke-linecap="round" stroke-linejoin="round"/>
<path d="M79.1751 36.8187C79.1751 36.8187 77.9751 37.252 77.7585 37.4854C77.5418 37.7187 77.4418 37.8687 77.4418 37.8687C77.4418 37.8687 76.8418 38.5354 76.5085 40.152C76.3585 40.8354 76.7085 41.952 76.4418 42.8354C75.6751 45.2854 79.3085 49.052 85.3085 51.2687C89.8585 52.952 94.8751 51.4187 95.5751 48.252C96.2418 45.202 95.8418 43.8187 95.5251 42.8354C94.8918 40.9354 94.6918 40.402 93.8418 39.6687C93.3085 39.202 92.9418 40.1687 90.9418 40.7187C90.3251 40.8854 89.5751 41.0187 88.6085 41.052C82.8585 41.2687 80.4251 38.002 79.5585 37.0687C79.3418 36.8854 79.2418 36.7854 79.1751 36.8187Z" fill="white"/>
<path d="M90.8918 40.7021C90.2751 40.8687 89.5251 41.0021 88.5584 41.0354C82.8084 41.2521 80.3751 37.9854 79.5084 37.0521" stroke="#CCCCCC" stroke-width="0.373253" stroke-miterlimit="10" stroke-linecap="round" stroke-linejoin="round"/>
<path d="M93.9418 39.0687C95.4585 40.3354 98.0918 43.6521 97.4585 51.0687C97.1418 54.7354 98.9251 56.2521 98.5251 56.8354C98.4585 56.9354 98.3751 56.9854 98.3085 57.0021C98.0251 57.0687 97.7585 57.2021 97.6251 57.4687C97.5751 57.5854 97.4918 57.6687 97.3751 57.7354C97.2751 57.8021 97.1585 57.8021 97.0585 57.7854C96.7085 57.7021 96.3251 57.9021 96.1085 58.2021C96.0251 58.3187 95.9251 58.4021 95.7751 58.4354C95.6751 58.4687 95.5751 58.4521 95.5085 58.4354C95.2251 58.3521 94.9085 58.4354 94.6585 58.6354C94.5918 58.6854 94.5251 58.7187 94.4418 58.7187C94.2918 58.7187 94.1751 58.6521 94.0751 58.5521C93.8418 58.3354 93.5085 58.2521 93.1751 58.3687C93.1418 58.3854 93.1251 58.3854 93.0918 58.3854C92.8585 58.4187 92.6751 58.2354 92.5418 57.9187C92.4085 57.6187 92.0918 57.4854 91.7585 57.5187C91.6918 57.5187 91.6251 57.5187 91.5418 57.5021C90.8918 57.3521 90.0585 56.4521 90.0418 55.3521C90.0251 54.2687 90.2751 52.3854 90.6918 51.5021C91.9751 48.7854 92.4418 46.8354 92.5085 45.3687C92.6418 42.6854 90.9418 40.2854 91.1085 40.2354C92.8085 39.8854 93.9418 39.0687 93.9418 39.0687Z" fill="white"/>
<path d="M90.6751 51.502C91.9584 48.7853 92.4251 46.8353 92.4918 45.3687C92.5918 43.302 91.5918 41.3853 91.2251 40.602" stroke="#CCCCCC" stroke-width="0.373253" stroke-miterlimit="10" stroke-linecap="round" stroke-linejoin="round"/>
<path d="M90.0251 55.352C90.0084 54.2687 90.2584 52.3853 90.6751 51.502C91.9584 48.7853 92.4251 46.8353 92.4917 45.3687" stroke="#CCCCCC" stroke-width="0.373253" stroke-miterlimit="10" stroke-linecap="round" stroke-linejoin="round"/>
<path d="M91.5084 49.5355C91.5084 49.5355 86.4417 50.0355 83.1084 47.5188" stroke="#CCCCCC" stroke-width="0.373253" stroke-miterlimit="10" stroke-linecap="round" stroke-linejoin="round"/>
<path d="M92.8751 40.7522C93.3418 41.4355 93.8751 42.4355 94.0085 43.6688" stroke="#CCCCCC" stroke-width="0.373253" stroke-miterlimit="10" stroke-linecap="round" stroke-linejoin="round"/>
<path d="M94.9918 58.4355C94.9918 58.4355 94.1418 56.6355 94.9918 52.7188C95.8918 48.5521 95.4751 46.5021 95.4751 46.5021" stroke="#CCCCCC" stroke-width="0.373253" stroke-miterlimit="10" stroke-linecap="round" stroke-linejoin="round"/>
<path d="M76.4751 40.9855C76.4751 40.9855 77.5918 43.2855 78.9418 44.3521" stroke="#CCCCCC" stroke-width="0.373253" stroke-miterlimit="10" stroke-linecap="round" stroke-linejoin="round"/>
<path d="M92.3584 46.5021C92.3584 46.5021 89.1918 46.7188 86.9584 45.8521" stroke="#CCCCCC" stroke-width="0.373253" stroke-miterlimit="10" stroke-linecap="round" stroke-linejoin="round"/>
<path d="M90.5786 24.2517C90.9452 24.3017 91.2286 23.9184 91.0952 23.5517C91.0286 23.3517 90.9119 23.1684 90.7286 23.0517C90.1619 22.7017 88.0452 22.6684 86.9286 23.4684C85.9452 24.2017 88.9119 24.0184 90.5786 24.2517Z" fill="#423232"/>
<path d="M95.1952 24.435C94.8952 24.435 94.7119 24.0517 94.8619 23.735C94.9452 23.5684 95.0619 23.4184 95.2285 23.335C95.7452 23.085 97.1286 23.235 97.7452 24.085C98.2952 24.835 96.5786 24.4184 95.1952 24.435Z" fill="#423232"/>
<path d="M89.9952 26.3517C88.6952 26.9017 87.2452 26.2184 87.2452 26.2184" stroke="#423232" stroke-width="0.373253" stroke-miterlimit="10" stroke-linecap="round" stroke-linejoin="round"/>
<path d="M96.5786 26.6851C96.5786 26.6851 95.6786 27.2351 94.5453 26.5851" stroke="#423232" stroke-width="0.373253" stroke-miterlimit="10" stroke-linecap="round" stroke-linejoin="round"/>
<path d="M91.6731 33.4221C91.6856 33.6212 91.5363 33.9695 91.2626 34.2184C89.8566 33.3599 89.2221 33.8078 89.2221 33.8078C88.7244 33.0489 88.8364 32.0162 90.0433 32.8C90.8893 33.335 91.3994 33.4221 91.6731 33.4221Z" fill="#423232"/>
<path d="M91.2626 34.2184C90.964 34.4797 90.5161 34.6414 89.9064 34.3926C89.6202 34.2806 89.3963 34.0567 89.2221 33.8078C89.2221 33.8078 89.8566 33.3599 91.2626 34.2184Z" fill="#FE9DAB"/>
<path d="M91.9096 33.3724C91.9096 33.3724 91.387 33.6585 90.0433 32.8C88.4383 31.7674 88.7618 33.9322 89.894 34.3926C91.076 34.8778 91.6856 33.8203 91.6732 33.4221" stroke="#423232" stroke-width="0.373253" stroke-miterlimit="10" stroke-linecap="round" stroke-linejoin="round"/>
<path d="M89.2221 33.8078C89.2221 33.8078 89.8566 33.3599 91.2626 34.2184" stroke="#423232" stroke-width="0.373253" stroke-miterlimit="10" stroke-linecap="round" stroke-linejoin="round"/>
<path d="M100.761 28.0034C99.9776 27.2868 99.7609 26.2368 99.6943 25.5368C100.194 25.8701 100.844 24.8534 100.811 23.6534C100.761 21.8701 100.294 20.5534 99.7443 19.6368C100.128 19.1534 100.411 18.5868 100.561 17.9534C101.244 15.1868 98.9943 13.0701 95.7109 12.2701C93.6943 11.7701 89.9943 12.0201 85.6443 11.9534C84.8943 11.9368 84.1109 11.9701 83.3443 12.0534C82.4109 12.1534 81.4943 12.3534 80.6443 12.7034C79.2609 13.2201 77.9943 14.0368 77.0276 15.2201C75.3276 17.3201 74.8443 19.7201 74.7609 21.5868C74.6776 23.8034 74.1443 25.9868 73.0943 27.9534C71.9609 30.0701 71.2609 32.3201 72.3776 34.2534C72.4109 34.3034 72.4443 34.3534 72.4776 34.4201C71.9443 37.0534 74.9109 36.8201 75.4943 34.1534C75.3776 34.6534 75.2943 35.0868 75.2443 35.3868C74.8443 38.0034 76.7443 38.3368 77.6943 36.5201C77.7943 36.3368 78.0443 35.5868 78.3109 34.6368C78.3109 34.8034 78.3276 34.9701 78.3443 35.1201C78.3776 38.7701 80.9776 39.0868 80.8276 36.6201C80.7609 35.5201 80.9443 33.9868 81.2276 32.3201C76.4943 30.9034 77.2276 25.9034 79.3443 25.6368C81.7776 25.3201 82.2943 27.8368 82.2943 27.8368C82.4776 28.6201 82.7443 29.5534 83.1443 30.0034C83.8609 30.7868 85.0943 30.2368 84.2943 27.7701C84.1276 27.2534 83.9776 26.6701 83.8776 26.0534C84.5109 26.2201 85.0609 25.8701 84.7943 25.1701C84.5443 24.5368 84.4109 23.9534 84.3776 23.4034C84.3276 22.5534 84.5443 21.7868 84.9109 21.1534C85.2943 22.6701 86.8943 22.2034 86.9943 21.1034C87.0276 20.7368 87.1443 20.3034 87.3109 19.8201C87.7109 20.3368 88.2609 20.8201 88.9443 21.1701C90.2109 21.8034 91.1109 21.5034 91.3109 20.8534C92.1276 21.1368 92.8609 21.3534 93.4276 21.4868C95.1276 21.9034 96.8109 21.6868 98.1276 20.9868C98.1943 21.1368 98.2276 21.2701 98.2443 21.3201C98.2609 21.4034 98.2776 21.4868 98.2943 21.5701C98.4443 22.2868 98.5276 22.9868 98.4609 24.0368C98.4609 24.0868 98.4609 24.1201 98.4443 24.1701C98.4443 24.2034 98.4443 24.2368 98.4276 24.2701C98.4276 24.3534 98.4109 24.4201 98.4109 24.5034C98.4109 24.5534 98.3943 24.5868 98.3943 24.6368C98.3943 24.7034 98.3776 24.7868 98.3609 24.8701C98.3443 24.9368 98.3443 25.0034 98.3276 25.0701C98.3276 25.1201 98.3109 25.1868 98.3109 25.2368C98.2943 25.3368 98.2776 25.4368 98.2609 25.5534C98.2609 25.5701 98.2609 25.6034 98.2443 25.6201C98.2276 25.7534 98.1943 25.8868 98.1776 26.0368C98.0943 26.5034 97.9943 27.0034 97.8776 27.5868C97.1776 30.8201 98.2609 34.0868 95.9776 37.1201C95.8776 38.0201 96.6609 39.1534 97.6276 37.9701C98.3776 37.0534 98.0276 33.9868 97.9776 33.3701C98.0443 34.0201 99.0776 36.0868 100.044 35.7868C100.578 35.6201 100.811 35.3368 100.728 34.3534C100.628 32.9701 99.5443 31.6034 99.3943 29.5868C100.394 30.4368 101.811 28.9534 100.761 28.0034Z" fill="#423232"/>
<path d="M80.3523 28.4662C80.3523 28.4662 79.0189 28.2662 79.1189 30.1328C79.1689 31.0828 79.1689 31.5995 79.1523 31.8662C79.1356 32.0495 79.2523 32.2162 79.4189 32.2828C79.6189 32.3662 79.8356 32.2828 79.9356 32.0828C80.0856 31.8162 80.2523 31.4495 80.2523 31.1495C80.2523 30.6495 80.7856 30.1995 80.7856 30.1995C80.7856 30.1995 80.3023 29.7828 80.3523 28.4662Z" fill="white"/>
<path d="M84.3857 60.5995C84.2523 60.4495 79.019 51.4995 79.8023 48.1328C80.3357 45.8161 79.6357 43.1495 79.019 40.7995C78.769 39.8328 78.5356 38.9328 78.4023 38.1328C78.169 36.7495 78.3356 35.4328 78.9023 34.2161C79.519 32.8495 79.419 31.6661 79.419 31.6495L79.7523 31.6161C79.7523 31.6661 79.8523 32.9161 79.2023 34.3495C78.669 35.4995 78.519 36.7661 78.7356 38.0828C78.869 38.8661 79.1023 39.7661 79.3523 40.7328C79.9857 43.1161 80.6857 45.8328 80.1357 48.2328C79.4023 51.4328 84.619 60.3828 84.6523 60.4161L84.3857 60.5995Z" fill="white"/>
<path d="M79.169 31.0995C79.1857 31.4661 79.169 31.7161 79.169 31.8661C79.1523 32.0495 79.269 32.2161 79.4357 32.2828C79.6357 32.3661 79.8523 32.2828 79.9523 32.0828C80.1023 31.8161 80.269 31.4494 80.269 31.1494C80.269 31.1328 80.269 31.0995 80.269 31.0828C79.919 31.2161 79.519 31.3161 79.169 31.0995Z" fill="#E5E5E5"/>
<path d="M94.8523 42.1828C94.7357 42.9495 94.719 44.1661 94.6857 45.5828C94.6357 48.3161 93.019 58.9661 92.2357 60.6495L91.9357 60.5161C92.6857 58.8828 94.3023 48.2828 94.3523 45.5828C94.3857 44.1661 94.4023 42.9328 94.519 42.1328C94.769 40.4495 94.5857 39.1828 94.4857 38.6495C94.5357 38.5995 94.5857 38.5661 94.6357 38.5161C94.6857 38.4828 94.719 38.4328 94.769 38.3995C94.869 38.8328 95.1523 40.2161 94.8523 42.1828Z" fill="white"/>
</g>
</g>
<rect x="61" y="3" width="52" height="52" rx="26" stroke="#FFB531" stroke-width="2"/>
<rect x="91" y="4" width="52" height="52" rx="26" fill="white"/>
<path d="M108 30H126" stroke="#DE4132" stroke-width="2" stroke-linecap="round"/>
<path d="M117 21L117 39" stroke="#DE4132" stroke-width="2" stroke-linecap="round"/>
<rect x="91" y="4" width="52" height="52" rx="26" stroke="#FFB531" stroke-width="2"/>
<defs>
<clipPath id="clip0_2_722">
<rect x="2" y="2" width="50" height="50" rx="25" fill="white"/>
</clipPath>
<clipPath id="clip1_2_722">
<rect x="32" y="3" width="50" height="50" rx="25" fill="white"/>
</clipPath>
<clipPath id="clip2_2_722">
<rect x="62" y="4" width="50" height="50" rx="25" fill="white"/>
</clipPath>
</defs>
</svg>
