<svg width="50" height="50" viewBox="0 0 50 50" fill="none" xmlns="http://www.w3.org/2000/svg">
<g id="skiing 1">
<g id="Flat">
<path id="Vector" d="M14.8438 21.0937L13.1472 19.3972C12.5612 18.8111 12.2319 18.0163 12.2319 17.1875C12.2319 16.3587 12.5612 15.5639 13.1472 14.9778L21.2278 6.89715C21.8139 6.31113 22.6087 5.9819 23.4375 5.9819C24.2663 5.9819 25.0611 6.31113 25.6472 6.89715L27.3438 8.59374L14.8438 21.0937Z" fill="#F98500"/>
<path id="Vector_2" d="M32.0566 29.209L29.6875 37.5L25.7812 39.0625L28.125 29.6875L27.2246 29.4297L23.2568 28.2969L20.6055 27.5065L21.875 21.875L26.1719 23.7168L28.8799 24.877L30.2822 25.4785C30.9812 25.778 31.5471 26.322 31.8737 27.0087C32.2004 27.6955 32.2654 28.4777 32.0566 29.209Z" fill="#3B495E"/>
<path id="Vector_3" d="M28.8799 24.877L27.2246 29.4297L23.2568 28.2969L26.1719 23.7168L28.8799 24.877Z" fill="#313B4C"/>
<path id="Vector_4" d="M28.9063 13.2812L31.25 10.9375L33.5938 12.5L36.1016 9.5742C36.6408 8.94545 36.9241 8.13704 36.8953 7.30923C36.8666 6.48142 36.5278 5.69463 35.9462 5.10482C35.3647 4.51501 34.5827 4.16524 33.7554 4.12484C32.9281 4.08445 32.1158 4.35637 31.4795 4.8867L25.1885 10.1289" fill="#FEC9A3"/>
<path id="Vector_5" d="M4.6875 1.5625H6.25V18.75H4.6875V1.5625Z" fill="#C7C7C5"/>
<path id="Vector_6" d="M28.7041 17.7471L21.875 23.4375L22.8242 24.251L25.4414 26.4941L25.7285 26.7402C26.1931 27.1385 26.5145 27.6779 26.6438 28.276C26.773 28.8742 26.703 29.4981 26.4443 30.0527L21.8848 39.8223L17.8017 41.332L21.875 30.4687L20.2305 29.8105L18.5625 29.1435C17.2064 28.6013 16.0487 27.6571 15.2448 26.4377C14.441 25.2184 14.0294 23.7823 14.0654 22.3223C14.0683 22.1875 14.0752 22.0527 14.0859 21.918C14.2369 20.1946 14.996 18.5812 16.2275 17.3662L21.0937 12.5L17.9687 10.1562L9.56151 13.2578L8.57518 13.6211C8.5039 14.272 8.22993 14.8841 7.79196 15.371C7.35399 15.8578 6.77416 16.1947 6.13434 16.3342C5.49452 16.4737 4.82706 16.4086 4.2262 16.1483C3.62535 15.8879 3.12148 15.4453 2.78574 14.8831C2.45 14.3209 2.29936 13.6674 2.35509 13.0149C2.41083 12.3625 2.67012 11.744 3.09636 11.2469C3.52259 10.7497 4.09423 10.3991 4.73054 10.2444C5.36685 10.0897 6.03568 10.1388 6.64257 10.3848L8.208 9.64842L16.9209 5.54881C17.4657 5.29209 18.0732 5.19836 18.6701 5.27893C19.267 5.3595 19.8279 5.61092 20.2851 6.00292L24.2187 9.37499L28.9062 13.2812C29.2036 13.5787 29.4358 13.9348 29.5879 14.3269C29.74 14.719 29.8088 15.1385 29.7898 15.5587C29.7707 15.9789 29.6644 16.3905 29.4774 16.7673C29.2905 17.144 29.0271 17.4777 28.7041 17.7471Z" fill="#FEC9A3"/>
<path id="Vector_7" d="M25.7285 26.7402L25.4414 26.4941L22.8242 24.251L21.875 23.4375L14.0654 22.3223C14.0298 23.7822 14.4415 25.2182 15.2453 26.4374C16.0491 27.6567 17.2066 28.601 18.5625 29.1436L20.2305 29.8105L21.875 30.4688L17.8018 41.332L21.8848 39.8223L26.4443 30.0527C26.703 29.4982 26.773 28.8742 26.6438 28.276C26.5145 27.6779 26.1931 27.1385 25.7285 26.7402Z" fill="#4D5E78"/>
<path id="Vector_8" d="M5.46875 7.03125C6.76317 7.03125 7.8125 6.3317 7.8125 5.46875C7.8125 4.60581 6.76317 3.90625 5.46875 3.90625C4.17433 3.90625 3.125 4.60581 3.125 5.46875C3.125 6.3317 4.17433 7.03125 5.46875 7.03125Z" fill="#D6D6D4"/>
<path id="Vector_9" d="M34.9343 7.33807L33.6854 6.39891L32.0502 8.57352L30.9659 4.26874L29.4507 4.65048L31.5252 12.9468L33.0403 12.5651L32.5407 10.521L34.9343 7.33807Z" fill="#4D5E78"/>
<path id="Vector_10" d="M28.7041 17.7471L25.3906 20.5078L23.4687 22.1094L21.875 23.4375L19.9648 23.165L18.1689 22.9082L14.0654 22.3223C14.0684 22.1875 14.0752 22.0527 14.0859 21.918C14.1686 20.9171 14.4629 19.9451 14.9492 19.0664C15.2926 18.442 15.723 17.8695 16.2275 17.3662L17.1875 16.4062L21.0937 12.5L17.9687 10.1562L9.56152 13.2578L8.20801 9.64842L16.9209 5.54881C17.4657 5.29209 18.0732 5.19836 18.6701 5.27893C19.267 5.3595 19.8279 5.61092 20.2852 6.00292L24.2187 9.37499L27.084 11.7627L27.0918 11.7695L28.2842 12.7627L28.2852 12.7637L28.9062 13.2812C29.2036 13.5787 29.4358 13.9348 29.5879 14.3269C29.74 14.719 29.8088 15.1385 29.7898 15.5587C29.7707 15.9789 29.6644 16.3905 29.4775 16.7673C29.2905 17.144 29.0272 17.4777 28.7041 17.7471Z" fill="#F35244"/>
<path id="Vector_11" d="M28.2842 12.7627L19.9648 23.165L18.1689 22.9082L27.084 11.7627L27.0918 11.7695L28.2842 12.7627Z" fill="#DE4132"/>
<path id="Vector_12" d="M17.9688 35.9375H23.4375L21.0938 41.4062L14.8438 43.75L17.9688 35.9375Z" fill="#3B495E"/>
<path id="Vector_13" d="M31.25 32.8125L25.7812 33.5938L24.2188 39.8438L30.4688 37.5L31.25 32.8125Z" fill="#313B4C"/>
<path id="Vector_14" d="M25.3906 20.5078L23.4688 22.1094L20.7539 21.1396L14.9492 19.0664C15.2926 18.442 15.723 17.8695 16.2275 17.3662L17.1875 16.4062L22.1152 18.8701L25.3906 20.5078Z" fill="#4D5E78"/>
<path id="Vector_15" d="M22.1152 18.8701L20.7539 21.1396L14.9492 19.0664C15.2926 18.442 15.723 17.8695 16.2275 17.3662L17.1875 16.4062L22.1152 18.8701Z" fill="#556A8A"/>
<path id="Vector_16" d="M24.2188 9.375L26.5625 7.03125L30.4688 11.7188L28.9062 13.2812L24.2188 9.375Z" fill="#DE4132"/>
<path id="Vector_17" d="M13.1472 14.9778L17.1875 14.8438L16.4062 11.7188L13.1472 14.9778Z" fill="#FFB531"/>
<path id="Vector_18" d="M25.4414 26.4941L20.2305 29.8105L18.5625 29.1436C17.8258 28.8489 17.1433 28.4338 16.543 27.915L22.8242 24.251L25.4414 26.4941Z" fill="#3B495E"/>
<path id="Vector_19" d="M39.9082 30.4814C39.6209 30.4444 39.329 30.4872 39.0645 30.6053C38.8 30.7234 38.5731 30.9121 38.4089 31.1507L37.6137 32.3155C37.032 33.1649 36.1914 33.8036 35.2173 34.1364L8.10176 43.4459C7.90516 43.5116 7.72359 43.6158 7.56757 43.7522C7.41156 43.8887 7.28421 44.0548 7.19293 44.241C7.10164 44.4271 7.04824 44.6295 7.03583 44.8364C7.02341 45.0433 7.05223 45.2506 7.12061 45.4463C7.26432 45.8421 7.5581 46.1653 7.93837 46.3461C8.31863 46.5269 8.75479 46.5506 9.15244 46.4122L36.8393 36.9065C37.9333 36.5325 38.884 35.8277 39.5599 34.8896L40.9879 32.9013C41.1431 32.6833 41.2388 32.4285 41.2653 32.1622C41.2919 31.8959 41.2486 31.6272 41.1395 31.3828C41.0305 31.1384 40.8595 30.9267 40.6436 30.7686C40.4276 30.6105 40.1741 30.5115 39.9082 30.4814Z" fill="#C7C7C5"/>
<path id="Vector_20" d="M46.392 31.7844C46.0644 31.7052 45.7205 31.7272 45.4057 31.8475C45.0908 31.9678 44.8199 32.1807 44.6286 32.4582L43.9368 33.4716C43.3551 34.3211 42.5146 34.9599 41.5404 35.293L14.4249 44.602C14.2283 44.6677 14.0467 44.7718 13.8906 44.9083C13.7346 45.0447 13.6073 45.2109 13.516 45.397C13.4247 45.5831 13.3713 45.7855 13.3589 45.9924C13.3465 46.1993 13.3753 46.4067 13.4437 46.6024C13.5874 46.9981 13.8812 47.3213 14.2614 47.5021C14.6417 47.6829 15.0778 47.7066 15.4755 47.5683L43.2904 38.0186C44.3053 37.6714 45.1987 37.0392 45.8635 36.1975L47.3079 34.3646C47.4765 34.1496 47.5881 33.8955 47.6321 33.6259C47.6762 33.3563 47.6514 33.0799 47.56 32.8224C47.4686 32.5649 47.3136 32.3348 47.1094 32.1533C46.9052 31.9718 46.6584 31.8449 46.392 31.7844Z" fill="#D6D6D4"/>
<path id="Vector_21" d="M19.0112 15.8856C18.3099 15.8882 17.612 15.7868 16.9404 15.5849C16.7456 15.5181 16.5851 15.3772 16.4937 15.1927C16.4022 15.0083 16.3873 14.7952 16.4522 14.5997C16.517 14.4043 16.6564 14.2424 16.8399 14.1492C17.0235 14.056 17.2365 14.039 17.4325 14.102C17.4734 14.115 19.744 14.8277 21.4228 13.6092C22.7596 12.6389 23.4375 10.6886 23.4375 7.8125C23.4375 7.6053 23.5198 7.40659 23.6663 7.26007C23.8128 7.11356 24.0115 7.03125 24.2187 7.03125C24.4259 7.03125 24.6246 7.11356 24.7712 7.26007C24.9177 7.40659 25 7.6053 25 7.8125C25 11.2262 24.1008 13.6052 22.3271 14.8835C21.2337 15.6717 20.0135 15.8856 19.0112 15.8856Z" fill="#4D5E78"/>
<path id="Vector_22" d="M37.834 8.12891C37.7195 8.90623 37.4714 9.65788 37.1006 10.3506C37.0663 10.4102 37.017 10.4597 36.9575 10.4942C36.898 10.5286 36.8305 10.5468 36.7617 10.5469C36.6793 10.5469 36.599 10.5209 36.5322 10.4727L33.1338 8.00782L29.4277 5.31935C29.3856 5.28839 29.3501 5.24942 29.3231 5.20467C29.2961 5.15992 29.2782 5.11028 29.2705 5.0586C29.2631 5.00694 29.2661 4.95431 29.2793 4.90382C29.2926 4.85333 29.3158 4.80601 29.3477 4.76466C29.4043 4.69142 30.7422 2.98634 32.7861 2.7588C33.9912 2.62501 35.1729 3.03126 36.3008 3.96583C36.701 4.29299 37.0414 4.6872 37.3067 5.13087C37.8135 5.98829 37.9942 7.00294 37.834 8.12891Z" fill="#FFB531"/>
<path id="Vector_23" d="M37.834 8.12891C37.7195 8.90623 37.4714 9.65787 37.1006 10.3506C37.0663 10.4102 37.017 10.4597 36.9575 10.4942C36.898 10.5286 36.8305 10.5468 36.7617 10.5469C36.6793 10.5469 36.599 10.5209 36.5322 10.4727L33.1338 8.00781C34.6479 7.24099 36.0515 6.27327 37.3066 5.13086C37.8135 5.98828 37.9941 7.00293 37.834 8.12891Z" fill="#FCAC1F"/>
</g>
</g>
</svg>
