<svg width="171" height="48" viewBox="0 0 171 48" fill="none" xmlns="http://www.w3.org/2000/svg">
<path fill-rule="evenodd" clip-rule="evenodd" d="M63.5319 21.8292L60.4272 21.1556C58.8736 20.8188 58.0184 19.8606 58.0184 18.4565C58.0184 16.672 59.6027 15.3258 61.7041 15.3258C64.612 15.3258 65.4706 17.4651 65.665 18.1216C65.7267 18.3398 65.8785 18.5248 66.0825 18.6268C66.2817 18.7288 66.5047 18.744 66.7181 18.6695L68.3547 18.0922C68.5511 18.0224 68.7136 17.8803 68.8088 17.6948C68.904 17.5093 68.9248 17.2945 68.867 17.0942C68.4448 15.6094 66.8936 12.1561 61.633 12.1561C57.7385 12.1561 54.4512 15.1351 54.4512 18.6619C54.4512 21.6931 56.4402 23.9321 59.7735 24.6578L62.7335 25.303C64.5152 25.6777 65.5797 26.764 65.5797 28.206C65.5797 30.0466 64.0665 31.1898 61.6283 31.1898C58.7631 31.1898 57.3827 29.3113 57.0459 27.5514C57.0246 27.438 56.9795 27.3303 56.9134 27.2356C56.8474 27.1409 56.762 27.0613 56.6629 27.0021C56.5638 26.9429 56.4532 26.9054 56.3385 26.8922C56.2238 26.879 56.1076 26.8902 55.9976 26.9253L54.1998 27.4992C54.0108 27.5568 53.8497 27.682 53.7473 27.8509C53.6449 28.0199 53.6084 28.2206 53.6448 28.4148C54.2045 31.3321 56.6015 34.4439 61.6615 34.4439C65.9373 34.4439 69.162 31.6594 69.162 27.9689C69.162 24.8523 67.1052 22.6133 63.5171 21.8212L63.5319 21.8292ZM81.8995 24.6673C81.909 24.729 81.8805 24.7764 81.8616 24.7954C81.8459 24.8148 81.826 24.8305 81.8034 24.8411C81.7808 24.8518 81.7561 24.8573 81.7311 24.8571H75.1375C75.1113 24.8571 75.0854 24.8511 75.0618 24.8396C75.0382 24.8281 75.0175 24.8113 75.0014 24.7907C74.9864 24.7733 74.9755 24.7527 74.9698 24.7305C74.964 24.7083 74.9635 24.685 74.9682 24.6626C75.2694 23.2879 76.4482 21.9018 78.4025 21.9018C80.3223 21.9018 81.6282 22.9312 81.8962 24.6593L81.8995 24.6673ZM78.3769 18.8232C74.9046 18.8232 71.3137 21.7263 71.3137 26.5885C71.3137 28.9318 72.0822 30.9336 73.5385 32.3709C74.8875 33.7039 76.7309 34.4391 78.7279 34.4391C81.7022 34.4391 84.1119 32.8851 85.1745 30.2837C85.2599 30.0703 85.2551 29.8331 85.1631 29.6244C85.1177 29.5231 85.052 29.4323 84.97 29.3575C84.8879 29.2827 84.7914 29.2257 84.6864 29.1899L83.2348 28.687C83.0406 28.6203 82.8283 28.6293 82.6404 28.7122C82.4525 28.7952 82.3028 28.9459 82.2211 29.1344C81.595 30.6096 80.4186 31.3544 78.7251 31.3544C76.6759 31.3544 75.1152 29.974 74.8448 27.9186C74.8414 27.8956 74.8433 27.8721 74.8503 27.8499C74.8573 27.8277 74.8692 27.8074 74.8852 27.7905C74.9041 27.7668 74.9468 27.7288 75.0132 27.7288H84.6351C85.0668 27.7288 85.4273 27.392 85.451 26.9623C85.4605 26.8247 85.4653 26.6729 85.4653 26.523C85.4653 21.7699 82.7472 18.818 78.3736 18.818L78.3769 18.8232ZM94.7613 30.3596C92.4512 30.3596 91.0138 28.7563 91.0138 26.1758C91.0138 23.6332 92.4844 21.99 94.7613 21.99C96.967 21.99 98.4489 23.6693 98.4489 26.1739C98.4489 28.6757 96.9661 30.3577 94.7608 30.3577L94.7613 30.3596ZM100.918 19.2596H99.1776C98.7269 19.2596 98.3593 19.6263 98.3593 20.0992C98.3591 20.1327 98.3492 20.1653 98.3306 20.1932C98.3121 20.221 98.2857 20.2428 98.2549 20.2558C98.2217 20.27 98.1553 20.289 98.0956 20.2321C97.199 19.4124 95.9372 18.9964 94.3481 18.9964C90.4095 18.9964 87.5505 22.018 87.5505 26.1782C87.5505 30.3203 90.4095 33.3267 94.3481 33.3267C95.8044 33.3267 97.1231 32.8486 98.0623 31.9805C98.124 31.9236 98.1904 31.9378 98.2236 31.9521C98.2473 31.9615 98.328 32.0042 98.328 32.1086V32.7063C98.328 35.5999 97.0614 36.9494 94.3481 36.9494C92.6262 36.9494 91.2743 35.8821 90.909 34.2323C90.8616 34.0188 90.7335 33.8386 90.5485 33.7233C90.3635 33.608 90.1406 33.5715 89.9271 33.6189L88.2175 34.0127C88.0075 34.0626 87.8256 34.193 87.7108 34.3758C87.596 34.5585 87.5575 34.779 87.6037 34.9898C88.2156 37.9878 90.927 40.0038 94.3443 40.0038C96.8916 40.0038 98.8318 39.2282 100.113 37.6984C101.17 36.4338 101.73 34.6782 101.73 32.6214V20.0902C101.73 19.6396 101.365 19.2743 100.914 19.2743L100.918 19.2596ZM121.615 18.8498C119.689 18.8498 118.122 19.5765 117.083 20.9559C117.065 20.9815 117.041 21.002 117.013 21.0157C116.986 21.0293 116.955 21.0355 116.924 21.0337C116.901 21.034 116.878 21.0282 116.858 21.017C116.838 21.0057 116.822 20.9894 116.81 20.9697C115.939 19.6225 114.434 18.8493 112.683 18.8493C111.29 18.8493 109.951 19.3388 109.008 20.1941C108.985 20.2179 108.955 20.2339 108.923 20.2399C108.891 20.2458 108.857 20.2414 108.827 20.2273C108.798 20.2154 108.774 20.1948 108.757 20.1683C108.74 20.1418 108.731 20.1107 108.733 20.0793C108.733 19.6287 108.365 19.2634 107.915 19.2634H106.261C105.811 19.2634 105.445 19.6287 105.445 20.0793V33.1859C105.445 33.6365 105.812 34.0027 106.263 34.0027H108.004C108.455 34.0027 108.82 33.6346 108.82 33.184V25.1943C108.82 23.2528 110.006 21.9478 111.775 21.9478C114.09 21.9478 114.436 23.7632 114.436 24.8447V33.1982C114.436 33.6488 114.802 34.0141 115.252 34.0141H117.023C117.474 34.0141 117.839 33.6469 117.839 33.1963V25.1659C117.839 23.2703 119.044 21.9469 120.766 21.9469C123.082 21.9469 123.427 23.7637 123.427 24.8452V33.1987C123.427 33.6493 123.792 34.0146 124.243 34.0146H125.984C126.434 34.0146 126.799 33.6474 126.799 33.1968V24.5492C126.799 20.6215 124.195 18.865 121.615 18.865V18.8498ZM133.384 24.8684C133.357 24.8684 133.332 24.8624 133.308 24.8511C133.285 24.8398 133.264 24.8233 133.247 24.803C133.233 24.7857 133.223 24.7653 133.217 24.7435C133.212 24.7216 133.211 24.6988 133.216 24.6768C133.518 23.3012 134.696 21.916 136.652 21.916C138.572 21.916 139.878 22.9454 140.146 24.6721C140.155 24.7337 140.125 24.7812 140.108 24.8001C140.091 24.8178 140.071 24.8319 140.048 24.8417C140.026 24.8515 140.002 24.8567 139.977 24.8571H133.384V24.8684ZM136.623 18.8346C133.151 18.8346 129.56 21.7396 129.56 26.5999C129.56 28.946 130.329 30.9464 131.783 32.3851C133.13 33.7181 134.971 34.4486 136.973 34.4486C139.942 34.4486 142.352 32.8927 143.419 30.2885C143.505 30.075 143.5 29.8378 143.405 29.6291C143.31 29.4204 143.139 29.2686 142.926 29.1927L141.474 28.6908C141.071 28.5518 140.625 28.7478 140.46 29.1377C139.834 30.6091 138.658 31.3577 136.964 31.3577C134.915 31.3577 133.354 29.9744 133.084 27.9186C133.08 27.8953 133.082 27.8715 133.088 27.8489C133.095 27.8263 133.106 27.8054 133.122 27.7877C133.141 27.7639 133.183 27.7284 133.25 27.7284H142.875C143.306 27.7284 143.665 27.3916 143.69 26.9613C143.699 26.8238 143.705 26.672 143.705 26.5202C143.705 21.7671 140.987 18.8118 136.613 18.8118L136.623 18.8346ZM154.066 18.8645C152.593 18.8645 151.302 19.3664 150.332 20.316C150.31 20.3384 150.282 20.3535 150.251 20.3595C150.22 20.3654 150.188 20.3618 150.159 20.3492C150.129 20.3362 150.104 20.3147 150.086 20.2874C150.068 20.26 150.059 20.2281 150.059 20.1955V20.0912C150.059 19.6405 149.692 19.2753 149.241 19.2753H147.534C147.083 19.2753 146.716 19.6405 146.716 20.0912V33.1953C146.716 33.646 147.081 34.0127 147.532 34.0127H149.301C149.752 34.0127 150.119 33.645 150.119 33.1944V25.5444C150.119 23.8329 150.895 22.0038 153.075 22.0038C155.034 22.0038 156.028 23.0868 156.028 25.2223V33.1916C156.028 33.6422 156.393 34.0074 156.844 34.0074H158.613C159.064 34.0074 159.43 33.6374 159.43 33.1868V24.7532C159.43 21.1196 157.372 18.8616 154.065 18.8616L154.066 18.8645ZM167.675 22.4136H169.738C170.189 22.4136 170.554 22.046 170.554 21.5958V20.0902C170.554 19.6396 170.189 19.2743 169.738 19.2743H167.675C167.653 19.2743 167.631 19.27 167.611 19.2617C167.591 19.2533 167.573 19.2411 167.557 19.2257C167.542 19.2103 167.529 19.192 167.521 19.1718C167.513 19.1517 167.509 19.1301 167.509 19.1083V15.6388C167.509 15.1882 167.14 14.822 166.69 14.822H165.153C164.703 14.822 164.337 15.1882 164.337 15.6388V17.4319C164.337 18.2715 164.016 19.2739 162.493 19.2739H162.231C161.78 19.2739 161.415 19.6391 161.415 20.0898V21.5935C161.415 22.0441 161.782 22.4094 162.231 22.4094H163.943C164.036 22.4094 164.109 22.4805 164.109 22.5754V29.8189C164.109 32.4942 165.739 34.1545 168.36 34.1545C169.09 34.1545 169.658 34.0501 169.932 33.9885C170.302 33.9031 170.562 33.5758 170.562 33.1916V31.7974C170.562 31.6827 170.538 31.5693 170.491 31.4646C170.444 31.3599 170.376 31.2662 170.29 31.1896C170.205 31.113 170.104 31.0552 169.995 31.0199C169.886 30.9846 169.771 30.9727 169.657 30.9848C169.472 31.0038 169.293 31.0147 169.152 31.0147C167.962 31.0147 167.516 30.5783 167.516 29.4066V22.5759C167.516 22.4848 167.592 22.4108 167.682 22.4108" fill="#43AF79"/>
<path fill-rule="evenodd" clip-rule="evenodd" d="M19.757 41.0001C17.9051 41.0001 16.0759 40.7249 14.3208 40.1809C13.8402 40.0319 13.4384 39.6982 13.2038 39.253C12.9693 38.8079 12.9211 38.2878 13.0699 37.8072C13.3802 36.8015 14.4456 36.2418 15.4441 36.5549C16.8349 36.9865 18.2855 37.2047 19.757 37.2047C26.1954 37.2047 31.7858 33.0731 33.6685 26.9206C33.7414 26.6824 33.8605 26.4609 34.019 26.2687C34.1776 26.0766 34.3725 25.9176 34.5926 25.8008C34.8126 25.6841 35.0536 25.6118 35.3016 25.5883C35.5496 25.5647 35.7998 25.5903 36.0379 25.6636C37.0398 25.9672 37.6033 27.0297 37.2969 28.0306C34.9232 35.7869 27.8742 41.0001 19.757 41.0001Z" fill="#43AF79"/>
<path fill-rule="evenodd" clip-rule="evenodd" d="M4.03197 19.7374C3.73521 19.7375 3.44257 19.6679 3.17758 19.5343C2.91258 19.4007 2.68261 19.2068 2.50615 18.9682C2.32969 18.7296 2.21166 18.4529 2.16154 18.1604C2.11141 17.8679 2.1306 17.5678 2.21755 17.284C4.59172 9.52826 11.6407 4.31885 19.757 4.31885C21.6103 4.31885 23.4394 4.59398 25.1931 5.13854C25.4312 5.21228 25.6523 5.33219 25.844 5.49142C26.0357 5.65064 26.1942 5.84607 26.3103 6.06653C26.4265 6.287 26.4981 6.52819 26.521 6.77632C26.5439 7.02446 26.5178 7.27468 26.444 7.51271C26.3705 7.75087 26.2507 7.9722 26.0915 8.164C25.9323 8.3558 25.7369 8.51432 25.5163 8.63047C25.2958 8.74662 25.0545 8.81813 24.8063 8.84089C24.5581 8.86365 24.3078 8.83722 24.0698 8.76312C22.68 8.33619 21.2284 8.11799 19.757 8.11799C13.3199 8.11799 7.72865 12.2497 5.84592 18.4021C5.72693 18.7904 5.48659 19.1302 5.16019 19.3719C4.8338 19.6135 4.43854 19.7441 4.03245 19.7445" fill="#43AF79"/>
<path fill-rule="evenodd" clip-rule="evenodd" d="M24.6316 29.3767H1.89744C0.849102 29.3767 0 28.5276 0 27.4793C0 26.4309 0.849102 25.5818 1.89744 25.5818H24.6316C25.6799 25.5818 26.529 26.4309 26.529 27.4793C26.529 28.5276 25.6799 29.3767 24.6316 29.3767Z" fill="#93C8A2"/>
<path fill-rule="evenodd" clip-rule="evenodd" d="M37.6167 19.7367H14.8835C13.8352 19.7367 12.9861 18.8876 12.9861 17.8393C12.9861 16.7909 13.8352 15.9418 14.8835 15.9418H37.6167C38.665 15.9418 39.5141 16.7909 39.5141 17.8393C39.5141 18.8876 38.665 19.7367 37.6167 19.7367Z" fill="#93C8A2"/>
<path fill-rule="evenodd" clip-rule="evenodd" d="M32.9167 10.6086C32.9167 11.1118 32.7168 11.5945 32.361 11.9503C32.0051 12.3061 31.5225 12.5061 31.0193 12.5061C30.5161 12.5061 30.0334 12.3061 29.6776 11.9503C29.3218 11.5945 29.1218 11.1118 29.1218 10.6086C29.1218 10.1054 29.3218 9.62277 29.6776 9.26693C30.0334 8.91109 30.5161 8.71118 31.0193 8.71118C31.5225 8.71118 32.0051 8.91109 32.361 9.26693C32.7168 9.62277 32.9167 10.1054 32.9167 10.6086ZM10.3918 34.7127C10.3918 35.2159 10.1919 35.6985 9.83604 36.0544C9.4802 36.4102 8.99758 36.6101 8.49435 36.6101C7.99111 36.6101 7.50849 36.4102 7.15266 36.0544C6.79682 35.6985 6.59691 35.2159 6.59691 34.7127C6.59691 34.2095 6.79682 33.7268 7.15266 33.371C7.50849 33.0152 7.99111 32.8153 8.49435 32.8153C8.99758 32.8153 9.4802 33.0152 9.83604 33.371C10.1919 33.7268 10.3918 34.2095 10.3918 34.7127Z" fill="#93C8A2"/>
</svg>
